<?xml version="1.0" standalone="no"?>
<!DOCTYPE svg PUBLIC "-//W3C//DTD SVG 20010904//EN"
 "http://www.w3.org/TR/2001/REC-SVG-20010904/DTD/svg10.dtd">
<svg version="1.0" xmlns="http://www.w3.org/2000/svg"
 width="1024.000000pt" height="1024.000000pt" viewBox="0 0 1024.000000 1024.000000"
 preserveAspectRatio="xMidYMid meet">
<metadata>
Created by potrace 1.14, written by Peter Selinger 2001-2017
</metadata>
<g transform="translate(0.000000,1024.000000) scale(0.100000,-0.100000)"
fill="#000000" stroke="none">
<path d="M5058 8245 c-1 -1 -57 -5 -123 -9 -66 -3 -158 -11 -205 -17 -47 -6
-91 -12 -97 -12 -7 0 -13 -4 -13 -8 0 -5 -6 -6 -14 -3 -8 3 -52 -2 -98 -11
-46 -10 -87 -18 -93 -19 -59 -11 -203 -51 -200 -55 1 -3 -10 -6 -26 -7 -17 -1
-37 -10 -45 -20 -9 -10 -12 -13 -8 -5 5 10 3 13 -7 9 -8 -3 -40 -14 -71 -23
-31 -10 -55 -21 -53 -25 2 -4 -6 -6 -18 -6 -12 1 -21 -4 -20 -10 1 -6 -8 -10
-20 -8 -12 1 -32 -5 -44 -12 -12 -8 -28 -14 -34 -14 -19 0 -229 -102 -224
-109 2 -4 -4 -8 -13 -8 -26 -3 -133 -64 -127 -73 3 -4 -3 -7 -13 -6 -9 0 -16
-5 -14 -12 1 -8 -2 -11 -9 -6 -7 4 -18 -1 -26 -11 -7 -11 -13 -16 -13 -12 0 4
-9 3 -20 -3 -11 -6 -17 -16 -14 -22 4 -7 3 -8 -5 -4 -10 6 -154 -86 -218 -140
-12 -11 -37 -30 -55 -44 -123 -94 -393 -364 -381 -383 3 -6 2 -7 -4 -4 -11 7
-15 3 -109 -119 -81 -103 -178 -245 -223 -324 -73 -131 -161 -315 -156 -327 2
-8 1 -12 -4 -9 -20 13 -133 -327 -181 -545 -85 -379 -99 -750 -45 -1139 94
-678 374 -1251 847 -1730 257 -260 582 -484 934 -643 311 -141 617 -223 979
-263 28 -3 64 -7 80 -9 38 -6 434 -7 443 -1 4 2 41 7 82 10 41 4 136 18 210
32 635 116 1159 376 1623 806 88 81 232 240 309 338 14 19 44 58 65 85 36 46
120 171 171 255 18 30 147 287 173 345 78 177 179 551 209 775 6 47 14 99 17
115 3 17 6 154 8 305 3 224 0 300 -15 411 -111 826 -512 1536 -1158 2049 -202
161 -525 346 -772 443 -255 100 -541 179 -652 182 -14 0 -24 3 -21 8 2 4 -14
7 -36 7 -49 0 -50 0 -78 11 -15 6 -23 5 -23 -2 0 -8 -4 -8 -13 -1 -7 6 -22 11
-32 11 -37 -1 -280 12 -292 16 -6 2 -13 2 -15 0z m-358 -39 c0 -2 -8 -10 -17
-17 -16 -13 -17 -12 -4 4 13 16 21 21 21 13z m-96 -25 c3 -5 -2 -15 -12 -22
-15 -12 -16 -12 -5 2 7 9 10 19 6 22 -3 4 -4 7 0 7 3 0 8 -4 11 -9z m-39 -10
c3 -5 2 -12 -3 -15 -5 -3 -9 1 -9 9 0 17 3 19 12 6z m-175 -31 c0 -5 -5 -10
-11 -10 -5 0 -7 5 -4 10 3 6 8 10 11 10 2 0 4 -4 4 -10z m40 4 c0 -8 -19 -13
-24 -6 -3 5 1 9 9 9 8 0 15 -2 15 -3z m237 -1 c-4 -3 -1 -13 6 -22 11 -14 10
-14 -5 -2 -16 12 -16 31 -1 31 4 0 3 -3 0 -7z m-282 -32 c3 -5 2 -12 -3 -15
-5 -3 -9 1 -9 9 0 17 3 19 12 6z m63 -16 c-3 -3 -9 2 -12 12 -6 14 -5 15 5 6
7 -7 10 -15 7 -18z m-168 -35 c8 -5 11 -10 5 -10 -5 0 -17 5 -25 10 -8 5 -10
10 -5 10 6 0 17 -5 25 -10z m-109 -17 c13 -16 12 -17 -3 -4 -10 7 -18 15 -18
17 0 8 8 3 21 -13z m-65 -19 c1 -9 0 -13 -4 -10 -3 4 -7 14 -8 22 -1 9 0 13 4
10 3 -4 7 -14 8 -22z m-123 -59 c-7 -21 -12 -19 -10 4 0 11 5 18 9 15 4 -3 5
-11 1 -19z m-179 -23 c2 -4 -5 -9 -17 -9 -17 -2 -19 0 -7 7 18 12 18 12 24 2z
m1539 -651 c389 -82 720 -301 959 -632 104 -145 206 -373 237 -529 6 -30 18
-91 27 -135 27 -125 21 -370 -11 -510 -24 -107 -57 -229 -65 -240 -3 -5 -17
-38 -30 -72 -14 -35 -28 -63 -33 -63 -4 0 -6 -4 -2 -9 3 -5 1 -12 -5 -16 -6
-4 -8 -10 -5 -15 16 -25 -155 -20 -266 9 -142 36 -275 117 -399 241 -101 101
-199 246 -200 296 0 32 38 21 124 -34 111 -71 158 -92 227 -101 66 -9 120 15
144 65 34 73 7 116 -112 178 -195 101 -346 246 -463 445 -50 85 -60 121 -32
121 10 0 30 -8 43 -19 37 -28 101 -59 141 -66 65 -12 131 35 144 103 8 43 -27
85 -122 149 -195 129 -304 261 -442 534 -47 92 -80 130 -118 130 -63 1 -86
-23 -160 -167 -37 -71 -86 -157 -110 -192 -25 -35 -41 -68 -38 -74 4 -6 2 -8
-4 -4 -6 3 -27 -15 -48 -41 -46 -58 -113 -113 -227 -187 -52 -34 -92 -67 -102
-85 -47 -91 25 -182 131 -166 23 3 72 24 108 46 92 55 106 44 59 -52 -68 -139
-201 -293 -333 -387 -36 -26 -67 -50 -68 -54 -2 -5 -7 -6 -12 -3 -5 3 -14 -1
-22 -8 -7 -7 -38 -24 -68 -39 -31 -14 -62 -33 -69 -41 -21 -27 -25 -90 -7
-125 48 -93 185 -78 365 40 109 71 136 65 96 -20 -33 -70 -79 -137 -133 -194
-28 -29 -42 -51 -37 -59 5 -8 4 -10 -4 -5 -7 5 -30 -9 -59 -36 -26 -24 -70
-59 -99 -78 -28 -19 -50 -37 -48 -40 2 -3 -4 -6 -13 -7 -9 0 -45 -13 -78 -27
-93 -39 -178 -58 -271 -59 l-85 -2 -49 108 c-50 110 -74 184 -104 315 -25 109
-26 124 -27 292 0 159 13 258 53 413 144 553 608 990 1179 1111 115 24 124 25
290 21 107 -2 185 -10 253 -24z m-338 -240 c3 -5 2 -12 -3 -15 -5 -3 -9 1 -9
9 0 17 3 19 12 6z m-311 -489 c3 -5 -1 -9 -9 -9 -8 0 -12 4 -9 9 3 4 7 8 9 8
2 0 6 -4 9 -8z m-67 -51 c0 -11 -5 -18 -9 -15 -4 3 -5 11 -1 19 7 21 12 19 10
-4z m43 9 c0 -5 -5 -10 -11 -10 -5 0 -7 5 -4 10 3 6 8 10 11 10 2 0 4 -4 4
-10z"/>
</g>
</svg>
